<?xml version="1.0" encoding="UTF-8" standalone="no"?>
<svg
   viewBox="0 0 512 512"
   version="1.1"
   id="svg4"
   sodipodi:docname="arrows-rotate-solid.svg"
   inkscape:version="1.1.2 (b8e25be833, 2022-02-05)"
   xmlns:inkscape="http://www.inkscape.org/namespaces/inkscape"
   xmlns:sodipodi="http://sodipodi.sourceforge.net/DTD/sodipodi-0.dtd"
   xmlns="http://www.w3.org/2000/svg"
   xmlns:svg="http://www.w3.org/2000/svg">
  <defs
     id="defs8" />
  <sodipodi:namedview
     id="namedview6"
     pagecolor="#ffffff"
     bordercolor="#666666"
     borderopacity="1.0"
     inkscape:pageshadow="2"
     inkscape:pageopacity="0.0"
     inkscape:pagecheckerboard="0"
     showgrid="false"
     inkscape:zoom="0.39453125"
     inkscape:cx="323.16832"
     inkscape:cy="358.65346"
     inkscape:window-width="1920"
     inkscape:window-height="1001"
     inkscape:window-x="-9"
     inkscape:window-y="-9"
     inkscape:window-maximized="1"
     inkscape:current-layer="svg4" />
  <!--! Font Awesome Pro 6.0.0 by @fontawesome - https://fontawesome.com License - https://fontawesome.com/license (Commercial License) Copyright 2022 Fonticons, Inc. -->
  <path
     d="m 417.8693,69.227725 c -13.7511,0 -24.90296,11.13629 -24.90296,24.90297 V 151.78884 C 361.91545,108.54328 311.56476,81.679205 256,81.679205 c -73.54159,0 -138.06362,46.957655 -160.639721,116.888315 -4.231948,13.08184 2.954894,27.14424 16.039071,31.34661 13.1441,4.2802 27.14424,-2.96657 31.36218,-16.0235 C 158.64495,164.5594 204.1707,131.48514 256,131.48514 c 39.3,0 74.91124,19.10525 96.81029,49.80594 h -34.55287 c -13.75111,0 -24.90296,11.1363 -24.90296,24.90297 0,13.76668 11.15185,24.90297 24.90296,24.90297 h 99.61188 c 13.75111,0 24.90297,-11.13629 24.90297,-24.90297 V 94.130695 c 0,-13.76668 -11.12851,-24.90297 -24.90297,-24.90297 z M 400.59287,282.14811 c -13.16744,-4.23195 -27.14424,2.96657 -31.36218,16.02351 C 353.35505,347.44059 307.8293,380.51484 256,380.51484 c -39.3,0 -74.90347,-19.10524 -96.8103,-49.80594 h 34.55287 c 13.75111,0 24.90297,-11.13629 24.90297,-24.90297 0,-13.76667 -11.15186,-24.90297 -24.90297,-24.90297 H 94.130695 c -13.751109,0 -24.90297,11.1363 -24.90297,24.90297 V 417.8693 c 0,13.76667 11.151861,24.90297 24.90297,24.90297 13.751105,0 24.902975,-11.1363 24.902975,-24.90297 v -57.65816 c 31.05089,43.26113 81.40157,70.10964 136.26594,70.10964 73.50267,0 138.05584,-46.95765 160.62416,-116.88831 4.98059,-13.07405 -2.25683,-27.78237 -15.3309,-31.28436 z"
     id="path2"
     style="stroke-width:0.778218;fill:#646464;fill-opacity:1" />
</svg>
